# xmcd
#
# Track frame offsets:
#	183
#	16333
#	28648
#	44558
#	59783
#	76033
#	90253
#	104890
#	119133
#	132370
#	148473
#	158583
#	169953
#	180913
#	191640
#
# Disc length: 2748 seconds
#
# Revision: 1
# Processed by: cddbd v1.5.2PL0 Copyright (c) Steve Scherf et al.
# Submitted via: audiograbber 1.83.01
#
DISCID=d50aba0f
DTITLE=AA.VV: - 034 - Milano canta
DYEAR=1994
DGENRE=Folklore
TTITLE0=G.Gaber - Porta romana
TTITLE1=O.Vanoni - Hanno ammazzato il Mario
TTITLE2=Quartetto Cetra - In un palco della Scala
TTITLE3=A.Rabagliati - Nòstalgia de Milan
TTITLE4=G.Gaber - Trani a go-go
TTITLE5=G.Bramieri - Innamorati a Milano
TTITLE6=O.Vanoni - Sentii come la vòsa la sirena
TTITLE7=G.Gaber - La mamma del Gino
TTITLE8=G.Paoli - A Milano non crescono fiori
TTITLE9=G.Gaber - M.Monti - La Balilla
TTITLE10=G.Bramieri - Madònina
TTITLE11=G.Gaber - Goganga
TTITLE12=G.Bramieri - Sentiss ciamà papà
TTITLE13=G.Bramieri - Quand sona i campan
TTITLE14=Le Orme - Milano 1968
EXTD=
EXTT0=
EXTT1=
EXTT2=
EXTT3=
EXTT4=
EXTT5=
EXTT6=
EXTT7=
EXTT8=
EXTT9=
EXTT10=
EXTT11=
EXTT12=
EXTT13=
EXTT14=
PLAYORDER=
